<svg width="1200" height="900" viewBox="0 0 1200 900" fill="none" xmlns="http://www.w3.org/2000/svg">
  <rect width="1200" height="900" fill="#F3E8DD"/>
  <rect x="72" y="72" width="1056" height="756" rx="40" fill="#FFF9F4"/>
  <rect x="170" y="170" width="860" height="112" rx="34" fill="#8F3F27"/>
  <rect x="214" y="282" width="18" height="264" rx="9" fill="#D4A183"/>
  <rect x="280" y="282" width="18" height="322" rx="9" fill="#D4A183"/>
  <rect x="346" y="282" width="18" height="248" rx="9" fill="#D4A183"/>
  <rect x="412" y="282" width="18" height="340" rx="9" fill="#D4A183"/>
  <rect x="478" y="282" width="18" height="286" rx="9" fill="#D4A183"/>
  <rect x="544" y="282" width="18" height="358" rx="9" fill="#D4A183"/>
  <rect x="610" y="282" width="18" height="238" rx="9" fill="#D4A183"/>
  <rect x="676" y="282" width="18" height="330" rx="9" fill="#D4A183"/>
  <rect x="742" y="282" width="18" height="278" rx="9" fill="#D4A183"/>
  <rect x="808" y="282" width="18" height="350" rx="9" fill="#D4A183"/>
  <rect x="874" y="282" width="18" height="300" rx="9" fill="#D4A183"/>
  <rect x="940" y="282" width="18" height="334" rx="9" fill="#D4A183"/>
  <text x="600" y="120" text-anchor="middle" fill="#6D2F1D" font-family="Arial, sans-serif" font-size="34">Preview de video</text>
  <text x="600" y="786" text-anchor="middle" fill="#6F5B51" font-family="Arial, sans-serif" font-size="40">Corte de flecos en distintos anchos y largos</text>
</svg>
